<svg width="236" height="198" viewBox="0 0 236 198" fill="none" xmlns="http://www.w3.org/2000/svg">
<path d="M174.8 7.86667C173.067 9.6 172.133 13.2 171.467 20.1333C170.933 25.6 170.267 33.7333 169.733 38.1333C169.067 45.3333 169.333 46.6667 171.867 49.2C175.333 52.6667 178.667 52.8 185.467 49.3333C192.4 45.7333 193.067 43.7333 189.467 36.4C187.6 32.5333 187.2 30.6667 188.267 30.9333C189.2 31.3333 191.067 33.7333 192.267 36.2667C193.6 38.9333 195.2 41.4667 195.867 42C196.667 42.4 200.8 40.9333 205.333 38.6667C212.667 34.9333 213.333 34.2667 213.333 30.1333C213.333 27.6 212.4 24.9333 211.2 23.8667C206 19.6 181.867 5.33333 179.733 5.33333C178.4 5.33333 176.267 6.4 174.8 7.86667Z" fill="#D3D3D3"/>
<path d="M198.667 55.0667C198.667 59.8667 200 62.6667 202.267 62.6667C205.2 62.6667 204 52.8 201.067 52.2667C199.333 51.8667 198.667 52.6667 198.667 55.0667Z" fill="#D3D3D3"/>
<path d="M201.333 73.3333C201.333 77.2 201.867 78.6667 203.333 78.6667C204.8 78.6667 205.333 77.2 205.333 73.3333C205.333 69.4667 204.8 68 203.333 68C201.867 68 201.333 69.4667 201.333 73.3333Z" fill="#D3D3D3"/>
<path d="M86 82.6667C84.5333 85.0667 86.6667 86.6667 91.2 86.6667C96.4 86.6667 97.8667 85.6 95.8667 83.0667C94.1333 81.0667 87.2 80.6667 86 82.6667Z" fill="#D3D3D3"/>
<path d="M73.8667 84C70.2667 85.4667 68.6667 87.8667 70.2667 89.4667C72.2667 91.4667 81.4667 87.0667 80.5333 84.6667C79.6 82.4 78 82.2667 73.8667 84Z" fill="#D3D3D3"/>
<path d="M199.333 87.2C197.2 92.4 197.6 94.6667 200.667 94.6667C203.067 94.6667 204.933 85.7333 202.8 83.6C201.733 82.5333 200.8 83.6 199.333 87.2Z" fill="#D3D3D3"/>
<path d="M102.133 84.9333C100.267 86.8 101.6 89.3333 105.467 91.4667C109.733 93.6 113.2 92.4 111.333 89.4667C110.133 87.3333 103.2 84 102.133 84.9333Z" fill="#D3D3D3"/>
<path d="M58.6667 92.5333C55.7333 95.7333 55.7333 100 58.6667 100C59.4667 100 61.6 98.5333 63.4667 96.6667C66.2667 93.8667 66.5333 92.8 65.3333 91.3333C63.0667 88.6667 62.2667 88.8 58.6667 92.5333Z" fill="#D3D3D3"/>
<path d="M113.867 95.2C112.933 97.6 117.067 104 119.467 104C122.4 104 122.667 102 120 97.6C117.2 93.0667 115.067 92.1333 113.867 95.2Z" fill="#D3D3D3"/>
<path d="M192.667 102.933C190.8 107.733 191.067 109.333 194 109.333C195.867 109.333 200 102.933 200 100C200 99.3333 198.8 98.6667 197.333 98.6667C195.467 98.6667 193.867 100.133 192.667 102.933Z" fill="#D3D3D3"/>
<path d="M49.3333 106.533C47.7333 110.533 48.4 113.333 50.8 113.333C52.2667 113.333 55.8667 105.067 55.0667 103.6C53.8667 101.467 50.9333 102.933 49.3333 106.533Z" fill="#D3D3D3"/>
<path d="M121.6 113.6C121.867 117.6 122.667 119.333 124 119.333C125.067 119.333 126.133 118.267 126.4 116.933C127.2 112.933 125.467 108 123.2 108C121.6 108 121.333 109.333 121.6 113.6Z" fill="#D3D3D3"/>
<path d="M185.067 115.333C182.4 118.933 182.133 120.8 184 122C185.733 123.067 190.533 117.467 190.667 114.267C190.667 111.067 187.733 111.467 185.067 115.333Z" fill="#D3D3D3"/>
<path d="M44.8 121.467C43.7334 126.667 46 130.133 48.9334 127.733C51.4667 125.733 50.6667 118.133 47.8667 117.6C46.4 117.333 45.4667 118.533 44.8 121.467Z" fill="#D3D3D3"/>
<path d="M120.8 128.8C120.133 131.733 120.4 134.267 121.2 135.067C123.333 137.2 125.2 134.8 125.6 129.333C125.867 126 125.467 124.667 123.867 124.267C122.267 124 121.467 125.2 120.8 128.8Z" fill="#D3D3D3"/>
<path d="M173.6 127.067C170.933 129.867 170.667 134.667 173.2 134.667C175.067 134.667 181.467 127.733 180.933 126.267C180 123.467 176.667 123.867 173.6 127.067Z" fill="#D3D3D3"/>
<path d="M46.1333 134.533C44.9333 136.4 48.1333 144 50 144C52.9333 144 53.3333 142 51.6 137.467C50.1333 133.467 47.6 132.133 46.1333 134.533Z" fill="#D3D3D3"/>
<path d="M161.067 137.467C157.733 140 157.2 144 160.267 144C163.067 144 169.2 138.533 168.4 136.667C167.467 134 165.333 134.267 161.067 137.467Z" fill="#D3D3D3"/>
<path d="M114.933 142.8C113.467 145.2 112.533 147.867 112.933 148.933C114.133 152 117.2 150.8 119.467 146.533C121.333 142.8 121.333 142.133 119.6 140.4C118 138.667 117.333 139.067 114.933 142.8Z" fill="#D3D3D3"/>
<path d="M148.267 145.6C143.6 148.533 142.933 150.267 146.133 151.6C149.067 152.667 154.667 149.333 154.667 146.533C154.667 142.933 152.933 142.667 148.267 145.6Z" fill="#D3D3D3"/>
<path d="M53.8667 148.267C52.9333 149.733 59.3333 156 61.7333 156C64.4 156 64 151.733 61.2 149.333C57.4667 146.4 55.2 146 53.8667 148.267Z" fill="#D3D3D3"/>
<path d="M104.4 154.533C102.8 155.867 101.067 159.067 100.667 161.867L99.7333 166.667H104.533C110 166.667 112.667 163.2 109.067 160.8C107.2 159.733 107.333 159.333 109.733 157.333C112.4 155.067 112 152 108.933 152C108 152.133 106 153.2 104.4 154.533Z" fill="#D3D3D3"/>
<path d="M133.733 153.6C130.533 155.067 129.733 157.867 132 159.333C132.667 159.733 135.067 159.2 137.333 158C144 154.533 140.4 150.267 133.733 153.6Z" fill="#D3D3D3"/>
<path d="M68.5334 156.133C67.3334 158.133 70.5334 160.933 75.0667 162C78.1334 162.8 78.6667 162.533 78.6667 160.267C78.6667 158.533 77.3334 157.067 74.5334 156.133C69.3334 154.4 69.7334 154.4 68.5334 156.133Z" fill="#D3D3D3"/>
<path d="M120.4 158.4C116.4 159.067 113.733 162.267 115.733 164.267C117.733 166.267 125.867 163.867 126.4 161.067C126.8 158.667 124.667 157.733 120.4 158.4Z" fill="#D3D3D3"/>
<path d="M84 161.2C84 162.8 84.9333 164.4 86 164.8C87.0667 165.333 87.6 166.133 87.2 166.8C85.8667 169.2 90.4 169.467 94.5333 167.333C101.2 164 99.3333 160.933 89.7333 159.333C84.5333 158.533 84 158.667 84 161.2Z" fill="#D3D3D3"/>
<path d="M76.5333 169.333C72.8 170.8 71.3333 173.2 73.0667 174.933C74.8 176.667 84.4 172.533 83.7333 170.4C82.9333 168.267 80.1333 167.867 76.5333 169.333Z" fill="#D3D3D3"/>
<path d="M59.7333 174.8C57.2 176.267 56.5333 179.333 58.5333 180.533C60.8 182 68 178.533 68 175.867C68 173.067 63.6 172.4 59.7333 174.8Z" fill="#D3D3D3"/>
<path d="M45.6 178.267C42.1333 178.933 40.2667 182.133 42.2667 184.133C42.9333 184.8 45.4667 184.933 47.7333 184.533C51.0667 183.867 52 182.933 52 180.533C52 177.333 51.4667 177.2 45.6 178.267Z" fill="#D3D3D3"/>
<path d="M27.6 182.267C26.2667 182.667 25.3333 183.867 25.6 185.067C26 186.8 27.2 187.2 30.6667 186.933C35.8667 186.4 38 184.933 36.8 182.8C35.8667 181.333 32 181.067 27.6 182.267Z" fill="#D3D3D3"/>
<path d="M10.2667 184.8C9.73334 185.333 9.33334 186.667 9.33334 187.6C9.33334 188.933 10.8 189.333 15.0667 189.067C18.9333 188.8 20.6667 188 20.6667 186.667C20.6667 184.533 12.1333 183.067 10.2667 184.8Z" fill="#D3D3D3"/>
</svg>
