<?xml version="1.0" standalone="no"?>
<!DOCTYPE svg PUBLIC "-//W3C//DTD SVG 20010904//EN"
 "http://www.w3.org/TR/2001/REC-SVG-20010904/DTD/svg10.dtd">
<svg version="1.0" xmlns="http://www.w3.org/2000/svg"
 width="512.000000pt" height="512.000000pt" viewBox="0 0 512.000000 512.000000"
 preserveAspectRatio="xMidYMid meet">

<g transform="translate(0.000000,512.000000) scale(0.100000,-0.100000)"
fill="#d3d3d3" stroke="none">
<path d="M1877 3574 c-638 -646 -678 -689 -692 -737 -31 -104 11 -204 106
-251 l53 -26 293 0 293 0 4 -22 c2 -13 14 -75 26 -138 54 -293 205 -614 400
-850 245 -295 599 -525 968 -626 173 -47 297 -64 527 -70 194 -5 199 -4 175
13 -310 224 -486 421 -622 694 -117 236 -179 510 -203 897 l-6 102 289 0 290
0 53 28 c73 38 112 100 113 180 0 35 -7 71 -18 94 -17 35 -1349 1398 -1366
1398 -4 0 -311 -309 -683 -686z"/>
</g>
</svg>
